<?xml version="1.0" encoding="utf-8"?>
<!-- generated at drububu.com  -->
<!DOCTYPE svg PUBLIC "-//W3C//DTD SVG 1.1//EN" "http://www.w3.org/Graphics/SVG/1.1/DTD/svg11.dtd">
<svg version="1.1" preserveAspectRatio="xMinYMin meet" xmlns="http://www.w3.org/2000/svg" xmlns:xlink="http://www.w3.org/1999/xlink" x="0px" y="0px" width="50px" height="20px" viewBox="0 0 50 20">
<path d="M0 0h4v1h-3v7h1v1h-2v-9z" fill="rgb(0,0,0)"/>
<path d="M4 0h2v9h-1v-3h-1v-1h1v-4h-1v-1z" fill="rgb(255,255,255)"/>
<path d="M6 0h4v1h-3v7h3v-1h-1v-1h1v-2h-1v-1h1v-2h1v8h-3v1h-3v7h1v1h-2v-9h-1v-1
	h1v-2h1v3h1v-9z" fill="rgb(0,0,0)"/>
<path d="M10 0h2v10h-1v1h-1v7h5v-7h-1v-1h-1v-1h3v9h5v-4h-2v-1h2v-3h-1v-1h2v9h5
	v-8h-1v-1h-4v-5h1v-3h-1v-1h28v20h-50v-11h2v-1h1v1h1v9h2v-1h1v1h2v-3h-1v-1h1v-4
	h-1v-1h3v-8h-1v-1z" fill="rgb(255,255,255)"/>
<path d="M12 0h2v1h-1v7h1v-3h1v3h1v-6h1v7h2v-5h-1v-4h4v1h1v3h-1v5h-2v1h-3v7h3
	v-2h-2v-3h2v-2h1v3h-2v1h2v4h-5v-9h-3v1h-1v-10z" fill="rgb(0,0,0)"/>
<path d="M14 0h4v4h1v5h-2v-7h-1v-1h-2v-1z" fill="rgb(255,255,255)"/>
<path d="M1 1h2v1h-1v2h1v3h-1v1h-1v-7z" fill="rgb(255,14,14)"/>
<path d="M3 1h1v4h-1v-4z" fill="rgb(255,255,255)"/>
<path d="M4 1h1v4h-1v-4z" fill="rgb(0,0,0)"/>
<path d="M7 1h2v1h1v1h-1v2h1v1h-1v2h-2v-7z" fill="rgb(255,14,14)"/>
<path d="M9 1h1v1h-1v-1z" fill="rgb(255,255,255)"/>
<path d="M13 1h1v1h1v1h1v5h-1v-4h-1v4h-1v-7z" fill="rgb(255,14,14)"/>
<path d="M14 1h2v1h-2v-1z" fill="rgb(0,0,0)"/>
<path d="M19 1h2v1h1v1h-1v5h-1v-5h-1v-2z" fill="rgb(255,14,14)"/>
<path d="M21 1h1v1h-1v-1z" fill="rgb(255,255,255)"/>
<path d="M2 2h1v2h-1v-2z" fill="rgb(0,0,0)"/>
<path d="M15 2h1v1h-1v-1z" fill="rgb(255,255,255)"/>
<path d="M9 4h1v1h-1v-1z" fill="rgb(255,255,255)"/>
<path d="M14 4h1v1h-1v-1z" fill="rgb(255,255,255)"/>
<path d="M3 5h1v1h-1v-1z" fill="rgb(0,0,0)"/>
<path d="M3 6h1v1h-1v-1z" fill="rgb(255,255,255)"/>
<path d="M2 7h1v1h-1v-1z" fill="rgb(0,0,0)"/>
<path d="M3 7h1v1h-1v-1z" fill="rgb(255,14,14)"/>
<path d="M9 7h1v1h-1v-1z" fill="rgb(255,255,255)"/>
<path d="M22 9h4v1h-3v7h3v-1h-1v-1h1v-2h-1v-1h1v-2h1v8h-5v-9z" fill="rgb(0,0,0)"/>
<path d="M5 10h2v1h-1v2h1v3h-1v1h-1v-7z" fill="rgb(255,14,14)"/>
<path d="M7 10h1v4h-1v-4z" fill="rgb(255,255,255)"/>
<path d="M8 10h1v4h-1v-4z" fill="rgb(0,0,0)"/>
<path d="M11 10h1v1h-1v-1z" fill="rgb(0,0,0)"/>
<path d="M12 10h1v1h-1v-1z" fill="rgb(255,255,255)"/>
<path d="M13 10h1v1h-1v-1z" fill="rgb(0,0,0)"/>
<path d="M17 10h1v1h2v1h-2v4h2v1h-3v-7z" fill="rgb(255,14,14)"/>
<path d="M18 10h2v1h-2v-1z" fill="rgb(255,255,255)"/>
<path d="M23 10h2v1h1v1h-1v2h1v1h-1v2h-2v-7z" fill="rgb(255,14,14)"/>
<path d="M25 10h1v1h-1v-1z" fill="rgb(255,255,255)"/>
<path d="M6 11h1v2h-1v-2z" fill="rgb(0,0,0)"/>
<path d="M10 11h1v6h1v-2h1v2h1v-6h1v7h-5v-7z" fill="rgb(0,0,0)"/>
<path d="M11 11h2v1h-1v2h1v-2h1v5h-1v-2h-1v2h-1v-6z" fill="rgb(255,14,14)"/>
<path d="M13 11h1v1h-1v-1z" fill="rgb(255,255,255)"/>
<path d="M12 12h1v2h-1v-2z" fill="rgb(0,0,0)"/>
<path d="M25 13h1v1h-1v-1z" fill="rgb(255,255,255)"/>
<path d="M7 14h1v1h-1v-1z" fill="rgb(0,0,0)"/>
<path d="M7 15h1v1h-1v-1z" fill="rgb(255,255,255)"/>
<path d="M8 15h1v3h-2v-1h1v-2z" fill="rgb(0,0,0)"/>
<path d="M18 15h2v1h-2v-1z" fill="rgb(255,255,255)"/>
<path d="M6 16h1v1h-1v-1z" fill="rgb(0,0,0)"/>
<path d="M7 16h1v1h-1v-1z" fill="rgb(255,14,14)"/>
<path d="M25 16h1v1h-1v-1z" fill="rgb(255,255,255)"/>
</svg>